<?xml version="1.0" standalone="no"?>
<!DOCTYPE svg PUBLIC "-//W3C//DTD SVG 20010904//EN"
 "http://www.w3.org/TR/2001/REC-SVG-20010904/DTD/svg10.dtd">
<svg version="1.0" xmlns="http://www.w3.org/2000/svg"
 width="512.000000pt" height="512.000000pt" viewBox="0 0 512.000000 512.000000"
 preserveAspectRatio="xMidYMid meet">
<metadata>
Created by potrace 1.16, written by Peter Selinger 2001-2019
</metadata>
<g transform="translate(0.000000,512.000000) scale(0.100000,-0.100000)"
fill="#000000" stroke="none">
<path d="M1032 3980 c-48 -30 -72 -75 -72 -140 0 -65 24 -110 72 -140 33 -20
55 -20 1888 -20 1833 0 1855 0 1888 20 48 30 72 75 72 140 0 65 -24 110 -72
140 -33 20 -55 20 -1888 20 -1833 0 -1855 0 -1888 -20z"/>
<path d="M1032 2700 c-48 -30 -72 -75 -72 -140 0 -65 24 -110 72 -140 33 -20
55 -20 1888 -20 1833 0 1855 0 1888 20 48 30 72 75 72 140 0 65 -24 110 -72
140 -33 20 -55 20 -1888 20 -1833 0 -1855 0 -1888 -20z"/>
<path d="M1053 2221 c-23 -11 -52 -36 -67 -57 l-26 -39 0 -846 0 -846 23 -33
c34 -51 82 -75 149 -74 55 1 75 11 780 394 398 217 752 410 788 430 82 46 114
99 104 170 -8 54 -24 88 -56 116 -12 12 -371 196 -796 409 -558 280 -785 389
-815 392 -28 2 -56 -3 -84 -16z m1000 -801 l228 -117 -433 -233 c-238 -129
-461 -249 -495 -268 l-63 -34 0 519 0 519 268 -134 c147 -74 370 -188 495
-252z"/>
<path d="M3032 1420 c-48 -30 -72 -75 -72 -140 0 -65 24 -110 72 -140 32 -19
52 -20 888 -20 836 0 856 1 888 20 48 30 72 75 72 140 0 65 -24 110 -72 140
-32 19 -52 20 -888 20 -836 0 -856 -1 -888 -20z"/>
</g>
</svg>
