<?xml version="1.0" standalone="no"?>
<!DOCTYPE svg PUBLIC "-//W3C//DTD SVG 20010904//EN"
 "http://www.w3.org/TR/2001/REC-SVG-20010904/DTD/svg10.dtd">
<svg version="1.0" xmlns="http://www.w3.org/2000/svg"
 width="260.000000pt" height="260.000000pt" viewBox="0 0 260.000000 260.000000"
 preserveAspectRatio="xMidYMid meet">
<metadata>
Created by potrace 1.16, written by Peter Selinger 2001-2019
</metadata>
<g transform="translate(0.000000,260.000000) scale(0.100000,-0.100000)"
fill="#000000" stroke="none">
<path d="M1409 2364 c-24 -25 -24 -27 -27 -265 -3 -275 12 -244 -127 -253
-257 -17 -535 -107 -728 -237 -142 -96 -294 -272 -375 -434 -104 -209 -159
-490 -150 -764 5 -164 17 -194 80 -199 46 -4 67 21 84 103 29 139 113 292 215
394 198 197 487 306 872 327 l127 7 0 -232 c0 -180 3 -239 15 -266 15 -38 52
-59 88 -50 12 3 110 79 217 168 108 89 350 290 538 446 189 156 347 292 352
302 13 24 12 61 -3 80 -7 8 -228 192 -492 409 -264 216 -506 415 -538 442 -70
57 -109 63 -148 22z m331 -383 c91 -75 239 -196 330 -271 91 -75 200 -165 243
-200 l78 -64 -28 -22 c-15 -12 -203 -168 -418 -347 l-390 -324 -5 196 c-5 198
-11 232 -46 245 -52 20 -397 -4 -571 -40 -304 -62 -574 -214 -718 -403 -22
-28 -41 -49 -43 -46 -7 7 18 123 45 210 95 302 309 541 593 660 160 68 328
103 548 114 197 10 186 -5 190 246 2 148 6 194 15 188 7 -4 86 -68 177 -142z"/>
</g>
</svg>
